<?xml version="1.0" encoding="utf-8"?>
<!-- Generator: Adobe Illustrator 27.5.0, SVG Export Plug-In . SVG Version: 6.00 Build 0)  -->
<svg version="1.1" id="Layer_1" xmlns="http://www.w3.org/2000/svg" xmlns:xlink="http://www.w3.org/1999/xlink" x="0px" y="0px"
	 viewBox="0 0 4000 4000" style="enable-background:new 0 0 4000 4000;" xml:space="preserve">
<g>
	<!-- <g>
		<rect x="0.5" y="0.5" style="fill:#FFFFFF;" width="3999" height="3999"/>
		<path d="M3999,1v3998H1V1H3999 M4000,0H0v4000h4000V0L4000,0z"/>
	</g> -->
</g>
<g>
	<defs>
		<path id="SVGID_1_" d="M2007.424,1470.936c26.581,50.575,58.981,101.868,88.026,151.447c1.34,0.351,2.679,0.705,4.019,1.058
			c-41.423,23.916-82.85,47.834-124.273,71.75c100.405,42.743,200.809,85.488,301.211,128.231
			c100.405,42.745,200.809,85.491,301.212,128.233c13.184-108.324,26.368-216.648,39.552-324.972
			c13.184-108.324,26.369-216.651,39.555-324.975c-39.262,22.667-78.527,45.338-117.788,68.007
			c-81.874-163.824-163.748-327.645-245.622-491.466c-68.587-137.447-439.641-161.021-554.712,29.771
			c0,0-387.888,679.608-424.338,742.742c147.333,85.064,294.668,170.125,441.998,255.189L2007.424,1470.936z M2684.576,2569.258
			c-57.129,0.878-117.524,6.619-174.879,10.141c-0.919,1.036-1.841,2.072-2.757,3.108c-2.63-47.76-5.262-95.52-7.892-143.281
			c-83.481,70.275-166.962,140.553-250.443,210.831c-83.484,70.275-166.965,140.553-250.447,210.831
			c90.694,60.683,181.387,121.369,272.08,182.053c90.694,60.686,181.389,121.372,272.083,182.058
			c-2.494-45.27-4.988-90.538-7.481-135.805c183.14,0.938,366.281,1.876,549.42,2.812c153.606,0.882,342.216-319.528,223.96-508.363
			c0,0-431.174-653.003-471.04-714.037c-142.432,93.035-284.868,186.072-427.299,279.107L2684.576,2569.258z M993.258,2174.76
			c-100.938,152.815-201.872,305.63-302.807,458.449c-84.741,128.119,80.37,461.247,303.136,465.508
			c0,0,441.202-2.191,691.882-3.282c83.162-0.362,145.359-0.604,163.522-0.604c0-170.125,0-340.25,0-510.378h-502.315
			c30.507-48.304,58.729-102.011,87.148-151.956c-0.365-1.337-0.729-2.67-1.097-4.008c41.426,23.916,82.851,47.831,124.274,71.75
			c-13.184-108.324-26.369-216.651-39.553-324.975c-13.184-108.324-26.369-216.651-39.553-324.975
			c-100.405,42.743-200.809,85.488-301.212,128.234c-100.405,42.745-200.809,85.488-301.214,128.234
			C914.732,2129.422,953.996,2152.092,993.258,2174.76z"/>
	</defs>
	<clipPath id="SVGID_00000098925945069618877520000004264884874010907041_">
		<use xlink:href="#SVGID_1_"  style="overflow:visible;"/>
	</clipPath>
	
		<linearGradient id="SVGID_00000048459019694817882880000002134102238342449797_" gradientUnits="userSpaceOnUse" x1="1638.1475" y1="3173.373" x2="2472.8125" y2="518.2704">
		<stop  offset="0" style="stop-color:#009B90"/>
		<stop  offset="1" style="stop-color:#24BD29"/>
	</linearGradient>
	
		<rect x="605.71" y="717.229" style="clip-path:url(#SVGID_00000098925945069618877520000004264884874010907041_);fill:url(#SVGID_00000048459019694817882880000002134102238342449797_);" width="2820.766" height="2507.771"/>
</g>
<defs>
	<filter id="Adobe_OpacityMaskFilter" filterUnits="userSpaceOnUse" x="1975.195" y="1235.903" width="681.531" height="715.752">
		<feColorMatrix  type="matrix" values="1 0 0 0 0  0 1 0 0 0  0 0 1 0 0  0 0 0 1 0"/>
	</filter>
</defs>
<mask maskUnits="userSpaceOnUse" x="1975.195" y="1235.903" width="681.531" height="715.752" id="SVGID_00000093893478493255881280000015881891615978518673_">
	<g style="filter:url(#Adobe_OpacityMaskFilter);">
		
			<linearGradient id="SVGID_00000170994778352151917180000000466652262018524807_" gradientUnits="userSpaceOnUse" x1="1947.448" y1="1185.7312" x2="2472.7134" y2="2408.9495" gradientTransform="matrix(1 0 0 1 136.2983 -132.7249)">
			<stop  offset="0" style="stop-color:#FFFFFF"/>
			<stop  offset="1" style="stop-color:#000000"/>
		</linearGradient>
		
			<rect x="1975.195" y="1235.902" style="fill:url(#SVGID_00000170994778352151917180000000466652262018524807_);" width="681.531" height="715.753"/>
	</g>
</mask>
<path style="mask:url(#SVGID_00000093893478493255881280000015881891615978518673_);fill-rule:evenodd;clip-rule:evenodd;fill:#106B60;" d="
	M2276.406,1823.422c100.405,42.745,200.809,85.491,301.212,128.233c13.184-108.324,26.368-216.648,39.552-324.972
	c13.184-108.324,26.369-216.651,39.555-324.975c-39.262,22.667-78.527,45.338-117.788,68.007
	c-307.2-351.759-531.515,101.221-531.515,101.221c26.581,50.572,58.981,101.868,88.026,151.447c1.34,0.351,2.679,0.705,4.019,1.058
	c-41.423,23.916-82.85,47.834-124.273,71.75C2075.6,1737.934,2176.005,1780.679,2276.406,1823.422"/>
<defs>
	
		<filter id="Adobe_OpacityMaskFilter_00000103231429718010069290000005996529334923020734_" filterUnits="userSpaceOnUse" x="875.47" y="1850.287" width="681.531" height="734.687">
		<feColorMatrix  type="matrix" values="1 0 0 0 0  0 1 0 0 0  0 0 1 0 0  0 0 0 1 0"/>
	</filter>
</defs>
<mask maskUnits="userSpaceOnUse" x="875.47" y="1850.287" width="681.531" height="734.687" id="SVGID_00000003096525569539938130000013959976410758220210_">
	<g style="filter:url(#Adobe_OpacityMaskFilter_00000103231429718010069290000005996529334923020734_);">
		
			<linearGradient id="SVGID_00000013887397372897181800000011986193436174684837_" gradientUnits="userSpaceOnUse" x1="997.1181" y1="2665.134" x2="1500.7943" y2="1693.7594" gradientTransform="matrix(1 0 0 1 21.6703 -66.7117)">
			<stop  offset="0" style="stop-color:#FFFFFF"/>
			<stop  offset="1" style="stop-color:#000000"/>
		</linearGradient>
		
			<rect x="875.47" y="1850.287" style="fill:url(#SVGID_00000013887397372897181800000011986193436174684837_);" width="681.531" height="734.69"/>
	</g>
</mask>
<path style="mask:url(#SVGID_00000003096525569539938130000013959976410758220210_);fill-rule:evenodd;clip-rule:evenodd;fill:#106B60;" d="
	M1557.001,2500.237c-13.184-108.324-26.369-216.651-39.553-324.975c-13.184-108.324-26.369-216.651-39.553-324.975
	c-100.405,42.743-200.809,85.488-301.212,128.234c-100.405,42.745-200.809,85.488-301.214,128.234
	c39.262,22.667,78.526,45.338,117.788,68.005c-151.031,441.921,353.418,409.693,353.418,409.693
	c30.507-48.304,58.729-102.011,87.148-151.956c-0.365-1.337-0.732-2.673-1.097-4.008
	C1474.153,2452.403,1515.577,2476.319,1557.001,2500.237"/>
<defs>
	
		<filter id="Adobe_OpacityMaskFilter_00000023267921408535083480000005559349175487203007_" filterUnits="userSpaceOnUse" x="1998.158" y="2439.227" width="792.061" height="785.773">
		<feColorMatrix  type="matrix" values="1 0 0 0 0  0 1 0 0 0  0 0 1 0 0  0 0 0 1 0"/>
	</filter>
</defs>
<mask maskUnits="userSpaceOnUse" x="1998.158" y="2439.227" width="792.061" height="785.773" id="SVGID_00000150086357992865027910000015850120867583731132_">
	<g style="filter:url(#Adobe_OpacityMaskFilter_00000023267921408535083480000005559349175487203007_);">
		
			<linearGradient id="SVGID_00000157273801264596824760000015847072332488503718_" gradientUnits="userSpaceOnUse" x1="3177.814" y1="2812.2783" x2="1839.4724" y2="2841.0603" gradientTransform="matrix(1 0 0 1 138.6918 0)">
			<stop  offset="0" style="stop-color:#FFFFFF"/>
			<stop  offset="1" style="stop-color:#000000"/>
		</linearGradient>
		
			<rect x="1998.158" y="2439.227" style="fill:url(#SVGID_00000157273801264596824760000015847072332488503718_);" width="792.063" height="785.773"/>
	</g>
</mask>
<path style="mask:url(#SVGID_00000150086357992865027910000015850120867583731132_);fill-rule:evenodd;clip-rule:evenodd;fill:#106B60;" d="
	M2248.605,2650.058c-83.484,70.275-166.965,140.553-250.447,210.828c90.694,60.686,181.387,121.372,272.08,182.056
	c90.694,60.686,181.389,121.372,272.083,182.058c-2.494-45.27-4.988-90.538-7.481-135.805c7.954,0.041,15.909,0.082,23.867,0.123
	c432.959-129.485,125.867-520.06,125.867-520.06c-57.126,0.878-117.521,6.619-174.876,10.141c-0.919,1.036-1.841,2.072-2.76,3.108
	c-2.627-47.76-5.259-95.52-7.889-143.281C2415.567,2509.502,2332.086,2579.78,2248.605,2650.058"/>
<defs>
	
		<filter id="Adobe_OpacityMaskFilter_00000182522794591624963740000001443968416884589198_" filterUnits="userSpaceOnUse" x="1314.267" y="770.034" width="1101.86" height="880.727">
		<feColorMatrix  type="matrix" values="1 0 0 0 0  0 1 0 0 0  0 0 1 0 0  0 0 0 1 0"/>
	</filter>
</defs>
<mask maskUnits="userSpaceOnUse" x="1314.267" y="770.034" width="1101.86" height="880.727" id="SVGID_00000078756183891140963150000002780751178218438830_">
	<g style="filter:url(#Adobe_OpacityMaskFilter_00000182522794591624963740000001443968416884589198_);">
		
			<linearGradient id="SVGID_00000062902159051260150620000016722976945863208346_" gradientUnits="userSpaceOnUse" x1="1970.6245" y1="362.1703" x2="1769.1539" y2="1542.2111" gradientTransform="matrix(1 0 0 1 67.4076 -164.088)">
			<stop  offset="0" style="stop-color:#FFFFFF"/>
			<stop  offset="1" style="stop-color:#000000"/>
		</linearGradient>
		
			<rect x="1314.267" y="770.034" style="fill:url(#SVGID_00000062902159051260150620000016722976945863208346_);" width="1101.86" height="880.727"/>
	</g>
</mask>
<path style="mask:url(#SVGID_00000078756183891140963150000002780751178218438830_);fill-rule:evenodd;clip-rule:evenodd;fill:#ECF955;" d="
	M1314.267,1650.762c0,0,654.012-997.112,1101.86-526.779c-40.937-81.913-81.874-163.822-122.811-245.734
	c-68.587-137.447-439.641-161.021-554.712,29.771C1738.605,908.02,1350.717,1587.629,1314.267,1650.762"/>
<defs>
	
		<filter id="Adobe_OpacityMaskFilter_00000010308949734806267030000009132385699649927821_" filterUnits="userSpaceOnUse" x="2809.55" y="1869.631" width="535.765" height="1222.377">
		<feColorMatrix  type="matrix" values="1 0 0 0 0  0 1 0 0 0  0 0 1 0 0  0 0 0 1 0"/>
	</filter>
</defs>
<mask maskUnits="userSpaceOnUse" x="2809.55" y="1869.631" width="535.765" height="1222.377" id="SVGID_00000057863634197761103770000009430266301118981035_">
	<g style="filter:url(#Adobe_OpacityMaskFilter_00000010308949734806267030000009132385699649927821_);">
		
			<linearGradient id="SVGID_00000075882799330463907060000002868558818611473047_" gradientUnits="userSpaceOnUse" x1="3655.1594" y1="3087.9783" x2="2693.1836" y2="2375.4414" gradientTransform="matrix(1 0 0 1 223.2658 -13.862)">
			<stop  offset="0" style="stop-color:#FFFFFF"/>
			<stop  offset="1" style="stop-color:#000000"/>
		</linearGradient>
		
			<rect x="2809.55" y="1869.631" style="fill:url(#SVGID_00000075882799330463907060000002868558818611473047_);" width="535.768" height="1222.378"/>
	</g>
</mask>
<path style="mask:url(#SVGID_00000057863634197761103770000009430266301118981035_);fill-rule:evenodd;clip-rule:evenodd;fill:#ECF955;" d="
	M2837.055,1869.631c0,0,594.371,1033.775-27.505,1220.997c91.572,0.459,183.137,0.919,274.71,1.379
	c153.606,0.865,342.183-319.565,223.908-508.387C3308.168,2583.62,2876.928,1930.66,2837.055,1869.631"/>
<defs>
	
		<filter id="Adobe_OpacityMaskFilter_00000075872910050995713420000003661630460999227017_" filterUnits="userSpaceOnUse" x="667.569" y="2404.099" width="1181.418" height="694.62">
		<feColorMatrix  type="matrix" values="1 0 0 0 0  0 1 0 0 0  0 0 1 0 0  0 0 0 1 0"/>
	</filter>
</defs>
<mask maskUnits="userSpaceOnUse" x="667.569" y="2404.099" width="1181.418" height="694.62" id="SVGID_00000123415031052348235800000014574777934332194480_">
	<g style="filter:url(#Adobe_OpacityMaskFilter_00000075872910050995713420000003661630460999227017_);">
		
			<linearGradient id="SVGID_00000008122966009431495390000016026094274023475625_" gradientUnits="userSpaceOnUse" x1="208.9509" y1="3153.8416" x2="1331.3372" y2="2737.4688" gradientTransform="matrix(1 0 0 1 0 -13.1627)">
			<stop  offset="0" style="stop-color:#FFFFFF"/>
			<stop  offset="1" style="stop-color:#000000"/>
		</linearGradient>
		
			<rect x="667.568" y="2404.099" style="fill:url(#SVGID_00000008122966009431495390000016026094274023475625_);" width="1181.419" height="694.62"/>
	</g>
</mask>
<path style="mask:url(#SVGID_00000123415031052348235800000014574777934332194480_);fill-rule:evenodd;clip-rule:evenodd;fill:#ECF955;" d="
	M1848.987,3094.193c0,0-1190.578-66.943-1007.65-690.094c-50.411,76.446-100.823,152.892-151.235,229.337
	c-84.643,128.185,80.718,461.19,303.488,465.282C993.59,3098.719,1776.088,3094.248,1848.987,3094.193"/>
<defs>
	
		<filter id="Adobe_OpacityMaskFilter_00000161614402799072421700000011673800921599631798_" filterUnits="userSpaceOnUse" x="965.04" y="2174.76" width="468.784" height="410.215">
		<feColorMatrix  type="matrix" values="1 0 0 0 0  0 1 0 0 0  0 0 1 0 0  0 0 0 1 0"/>
	</filter>
</defs>
<mask maskUnits="userSpaceOnUse" x="965.04" y="2174.76" width="468.784" height="410.215" id="SVGID_00000180342045949304346820000012538766885413716645_">
	<g style="filter:url(#Adobe_OpacityMaskFilter_00000161614402799072421700000011673800921599631798_);">
		
			<linearGradient id="SVGID_00000165940284230080188360000000353625850238312376_" gradientUnits="userSpaceOnUse" x1="1368.1249" y1="3261.7957" x2="842.8602" y2="1117.5663" gradientTransform="matrix(1 0 0 1 31.0062 -66.7117)">
			<stop  offset="0" style="stop-color:#FFFFFF"/>
			<stop  offset="1" style="stop-color:#000000"/>
		</linearGradient>
		
			<rect x="965.037" y="2174.759" style="fill:url(#SVGID_00000165940284230080188360000000353625850238312376_);" width="468.786" height="410.218"/>
	</g>
</mask>
<path style="mask:url(#SVGID_00000180342045949304346820000012538766885413716645_);fill-rule:evenodd;clip-rule:evenodd;fill:#005B50;" d="
	M1432.727,2428.488c-469.737,95.768-439.469-253.728-439.469-253.728c-151.031,441.921,353.418,409.693,353.418,409.693
	c30.507-48.304,58.729-102.011,87.148-151.956C1433.459,2431.158,1433.091,2429.823,1432.727,2428.488"/>
<defs>
	
		<filter id="Adobe_OpacityMaskFilter_00000162348165918560933730000016358885599381321345_" filterUnits="userSpaceOnUse" x="2506.937" y="2569.258" width="276.845" height="519.94">
		<feColorMatrix  type="matrix" values="1 0 0 0 0  0 1 0 0 0  0 0 1 0 0  0 0 0 1 0"/>
	</filter>
</defs>
<mask maskUnits="userSpaceOnUse" x="2506.937" y="2569.258" width="276.845" height="519.94" id="SVGID_00000110464795031989398250000005844243800907923608_">
	<g style="filter:url(#Adobe_OpacityMaskFilter_00000162348165918560933730000016358885599381321345_);">
		
			<linearGradient id="SVGID_00000127004928407787501050000017460409097253870988_" gradientUnits="userSpaceOnUse" x1="2467.6316" y1="2900.51" x2="1942.3672" y2="756.2816" gradientTransform="matrix(1 0 0 1 191.7235 -14.1551)">
			<stop  offset="0" style="stop-color:#FFFFFF"/>
			<stop  offset="1" style="stop-color:#000000"/>
		</linearGradient>
		
			<rect x="2506.937" y="2569.258" style="fill:url(#SVGID_00000127004928407787501050000017460409097253870988_);" width="276.847" height="519.94"/>
	</g>
</mask>
<path style="mask:url(#SVGID_00000110464795031989398250000005844243800907923608_);fill-rule:evenodd;clip-rule:evenodd;fill:#005B50;" d="
	M2506.937,2582.51c337.069,340.895,27.911,506.688,27.911,506.688c452.58-115.234,149.724-519.94,149.724-519.94
	c-57.124,0.876-117.522,6.622-174.876,10.141C2508.774,2580.438,2507.856,2581.474,2506.937,2582.51"/>
<defs>
	
		<filter id="Adobe_OpacityMaskFilter_00000078016848934221436380000015329285323730360455_" filterUnits="userSpaceOnUse" x="2007.427" y="1235.902" width="531.513" height="387.539">
		<feColorMatrix  type="matrix" values="1 0 0 0 0  0 1 0 0 0  0 0 1 0 0  0 0 0 1 0"/>
	</filter>
</defs>
<mask maskUnits="userSpaceOnUse" x="2007.427" y="1235.902" width="531.513" height="387.539" id="SVGID_00000002353801119453183530000015311082247014540729_">
	<g style="filter:url(#Adobe_OpacityMaskFilter_00000078016848934221436380000015329285323730360455_);">
		
			<linearGradient id="SVGID_00000059995883945165961370000017330579910799813777_" gradientUnits="userSpaceOnUse" x1="2492.0205" y1="3060.05" x2="1966.7556" y2="915.8192" gradientTransform="matrix(1 0 0 1 139.6579 -166.9357)">
			<stop  offset="0" style="stop-color:#FFFFFF"/>
			<stop  offset="1" style="stop-color:#000000"/>
		</linearGradient>
		
			<rect x="2007.427" y="1235.901" style="fill:url(#SVGID_00000059995883945165961370000017330579910799813777_);" width="531.513" height="387.54"/>
	</g>
</mask>
<path style="mask:url(#SVGID_00000002353801119453183530000015311082247014540729_);fill-rule:evenodd;clip-rule:evenodd;fill:#005B50;" d="
	M2099.469,1623.441c151.932-454.688,439.472-253.728,439.472-253.728c-307.202-351.757-531.513,101.223-531.513,101.223
	c26.578,50.572,58.981,101.868,88.023,151.45C2096.79,1622.74,2098.131,1623.09,2099.469,1623.441"/>
</svg>
