<svg xmlns="http://www.w3.org/2000/svg" viewBox="0 0 128 128" id="empty-no-mail-small" aria-hidden="true" role="none" data-supported-dps="128x128" width="128" height="128">
  <path d="M126.7 0C74.17 1.39 32 43.84 32 96h96V0z" fill="#ffefea"/>
  <circle cx="47" cy="125" r="3" fill="#95abc1"/>
  <circle cx="47" cy="125" r="1.5" fill="#fff"/>
  <circle cx="4" cy="125" r="3" fill="#95abc1"/>
  <circle cx="4" cy="125" r="1.5" fill="#fff"/>
  <path d="M94.46 98.09H94v-.73a2.86 2.86 0 00-2.85-2.86H80.37a2.86 2.86 0 00-2.85 2.86v.73H77v-.73A3.36 3.36 0 0180.37 94h10.74a3.36 3.36 0 013.35 3.36z" fill="#38434f"/>
  <path fill="#38434f" d="M85.25 78h.5v19.79h-.5z"/>
  <path d="M87 98.5a1.5 1.5 0 11-1.5-1.5 1.5 1.5 0 011.5 1.5zM96 98.5a1.5 1.5 0 11-1.5-1.5 1.5 1.5 0 011.5 1.5zM79 98.5a1.5 1.5 0 11-1.5-1.5 1.5 1.5 0 011.5 1.5z" fill="#95abc1"/>
  <path d="M96 70V50.43A6.43 6.43 0 0089.57 44H74.63A4.63 4.63 0 0070 48.63v21.1A10.27 10.27 0 0080.27 80H106V70z"/>
  <path d="M111.6 54.42l-3.41-1.9a1.17 1.17 0 00-1-.06l-2 .81a2.81 2.81 0 01-1.81.12l-14.16-4.14-3.63-2.69 2.13 6.5 7.5 3.62 7.56-1.27a4.94 4.94 0 002.54.26l1.93-.4a.29.29 0 000-.57h-.37l.73-.56 1.15 1.1a.41.41 0 00.41.09c.48-.22.24-.62 0-.9l2.17.76a.42.42 0 00.26-.77z" fill="#d69264"/>
  <path d="M108.33 62.62l-1.67 6.88c-.45.75-2.44 1.18-2.75 2A80.42 80.42 0 0198.07 83a12.56 12.56 0 01-3.28 3.15c-1.12.56-1.22 1.44-1.24 2.7 0 .35-.09.6.12.86l5.4 6.46a.62.62 0 001.09-.4 5.62 5.62 0 000-.6c0-.58-.31-3.21-.48-5a4.08 4.08 0 01.82-2.88c2.57-3.4 8.88-10.26 12.15-14.37 5.44-6.92-1.06-8.92-4.32-10.3z" fill="#d69264" fill-rule="evenodd"/>
  <path d="M99.26 94.48c-1 .22-2.24-.84-2.67-1.8C95 89 95.78 87.34 95 86a2.84 2.84 0 00-1.49.81c-1.12 1.07-2.45 4.64-2.45 4.64l1.05.82 1.24-1.59c.31-.4 1.13-.32 1 1.23a3.49 3.49 0 00.69 2.68l5.37 4.2c1.02-1.07-.76-2.71-1.15-4.31z" fill="#602812" fill-rule="evenodd"/>
  <path d="M112.09 74.79c1.16-1.77 1.6-3.93.16-5.48L111 68l-5.83 4.28-1.66 2c-3.18 3.77-4.06 10.54-5.19 14.82-.5 2-1.64 2.75-2.74 4.87a1.55 1.55 0 00-.1 1.39 1.51 1.51 0 001.36.91c2.78.08 6.52 3 8.92 3.08 1.84-.37-.41-1.16-1.34-1.9-1.7-1.3-3-2.92-2.75-5.21.33-3.02 8.05-13.85 10.42-17.45z" fill="#e8ae83" fill-rule="evenodd"/>
  <path d="M71.72 31.2a2.82 2.82 0 01-.07-.31 6 6 0 1111.61.62v.06C82.18 35.15 82.2 39.44 86 42H76s1.75-4.78-.34-4.87-2.21-.13-2.72-2c-.24-1.06-1-.68-1.2-1.28s.24-1.37 0-2.66" fill="#e8ae83"/>
  <path d="M73.26 48.69S71 42.08 77 41.08h8.81a6.22 6.22 0 015.8 3.79l5.12 12.3a4 4 0 001 1.28c3.38 1.91 13.82 4.32 15.89 7 .09.13.5.44.1.75C111.37 68 104 74 104 74H87c-4.07.14-7.4-2.76-8.55-6.67-.41-1.42-.73-2.51-.73-2.51s-2.5-9.06-4.46-16.13z" fill="#a43c4a" fill-rule="evenodd"/>
  <path d="M87 36.73c-.89-1.11-1.91-.75-1-2.85s-1.25-2.19-2-5.22c-1-4-4.15-5.84-8.18-5a5.34 5.34 0 00-4.44 5.31c2 .84 4.12-.61 4.12-.61a2.07 2.07 0 000 2.15c.81 1.19 1.55 1.51 1.5 3.23-.09 3.47.94 6.56 5 4.95.5-.2 1-.5 1.43-.12 1.33 1.23 4.83.66 3.57-1.84z" fill="#0a1b2c" fill-rule="evenodd"/>
  <path d="M104.61 56.52c-.87-1-1.83-2.46-3.36-2.06a12.27 12.27 0 01-5.18.39c-2.41-.82-6.3-1.66-8.45-3.14l-6.21-5.78c-.29-.11-2.86-2.56-4-2.58A2.77 2.77 0 0074.83 48c.44.71 6.91 6 9.55 8.29a4.23 4.23 0 002.39.75h17.61a.29.29 0 00.23-.52z" fill="#e8ae83" fill-rule="evenodd"/>
  <path d="M88.19 44.84l-3.2-4a.25.25 0 00-.35 0 .24.24 0 000 .35l2.68 3.34-11.2-3.67a.25.25 0 00-.32.15.25.25 0 00.16.32l12 3.94H88a.26.26 0 00.21-.11.26.26 0 00-.02-.32z" fill="#ffcc84"/>
  <path d="M104.4 97.38c-.66.78-2.29.71-3.22.22-3.55-1.87-3.93-3.71-5.35-4.32a2.81 2.81 0 00-.67 1.56c-.22 1.54.93 5.16.93 5.16h1.33v-2c0-.51.69-.94 1.58.33a3.49 3.49 0 002.19 1.69H108c.09-1.43-2.31-1.62-3.6-2.64z" fill="#762812" fill-rule="evenodd"/>
  <path d="M87.86 44.69a1.47 1.47 0 11.14 1.74 1.26 1.26 0 01-.14-1.74z" fill="#ffcc84" fill-rule="evenodd"/>
  <path fill="#a43c4a" fill-rule="evenodd" d="M43 87H19v2h24v-2zM43 99H19v1h24v-1z"/>
  <path fill="#e8f3ff" d="M19 89h24v10H19z"/>
  <path d="M2 113.3l4.58 2.14a.72.72 0 001-.37L17.83 91.8a.74.74 0 00-.36-1l-4.59-2.14a.69.69 0 00-.94.36L1.66 112.33a.74.74 0 00.34.97z" fill="#ebbd99" fill-rule="evenodd"/>
  <path fill="#e2a97b" d="M19.95 66h13.04v18H19.95z"/>
  <path d="M20.24 68.47A.72.72 0 0021 69h11a.72.72 0 00.71-.53L33 66H20z" fill="#ebbd99"/>
  <path d="M26.5 66.88a.62.62 0 00-.62.62v2a.62.62 0 001.24 0v-2a.62.62 0 00-.62-.62zm.38 2.62a.38.38 0 01-.76 0v-2a.38.38 0 11.76 0z" fill="#be7b6a"/>
  <circle cx="26.5" cy="69.5" r=".5" fill="#a43c4a"/>
  <circle cx="26.5" cy="67.5" r=".5" fill="#a43c4a"/>
  <path fill="#95abc1" d="M10 75h13v9H10z"/>
  <path d="M10 84l4.61-4.18a1.41 1.41 0 01.92-.34h1.9a1.4 1.4 0 01.91.34L23 84z" fill="#b4c6d9"/>
  <path d="M23 75l-5.53 5.58a1.33 1.33 0 01-1.9 0L10 75z" fill="#d0ddea"/>
  <path d="M40.51 85h-37c-.29 0-.51-.45-.51-1s.22-1 .49-1h37c.27 0 .49.45.49 1s-.2 1-.47 1z" fill="#788fa5"/>
  <path fill="#d69264" d="M17 102h20v13H17z"/>
  <path d="M17.17 115l7-6.29a2.1 2.1 0 011.4-.52h2.9a2.12 2.12 0 011.4.52l7 6.29z" fill="#e0aa7e"/>
  <path d="M36.93 102l-8.43 7.71a2.19 2.19 0 01-2.9 0L17.17 102z" fill="#f0c4a0"/>
  <path d="M44 126h-1V87a2 2 0 00-2-2H3a2 2 0 00-2 2v38.91H0V87a3 3 0 013-3h38a3 3 0 013 3z" fill="#38434f"/>
  <path d="M3.29 126H0v-2h3.29a.71.71 0 01.71.71v.59a.71.71 0 01-.71.7zM46.29 126H43v-2h3.29a.71.71 0 01.71.71v.59a.71.71 0 01-.71.7z" fill="#3a424f"/>
  <path d="M40.51 102h-37c-.27 0-.49-.45-.49-1s.22-1 .49-1h37c.27 0 .49.45.49 1s-.22 1-.49 1zM40.51 116h-37c-.27 0-.49-.45-.49-1s.22-1 .49-1h37c.27 0 .49.45.49 1s-.22 1-.49 1z" fill="#788fa5"/>
  <path fill="#38434f" d="M1 101h42v1H1zM1 115h42v1H1z"/>
  <path d="M36.52 84a.5.5 0 01-.51-.5v-4.25a3.54 3.54 0 011.74-3.09c1.09-.61 3 0 4 .84a.5.5 0 01-.7.72 2.91 2.91 0 00-2.81-.72A2.51 2.51 0 0037 79.25v4.25a.5.5 0 01-.48.5z" fill="#788fa5"/>
  <path d="M116.38 56.2l-11.95.87a.47.47 0 00-.43.47.47.47 0 00.46.46h10.79a1.13 1.13 0 001.13-1.14z" fill="#0d2135"/>
  <path fill="#958b7b" fill-rule="evenodd" d="M128 58h-24v42h3V61h21v-3z"/>
  <path d="M124 58h-5.58a.5.5 0 01-.5-.5.5.5 0 01.5-.5H124a1.87 1.87 0 001.47-.71 1.9 1.9 0 00.37-1.59c-4-17.45-4-17.54-4-17.62a.5.5 0 01.5-.51.49.49 0 01.5.43c.07.39 1.5 6.75 3.94 17.48A2.89 2.89 0 01124 58z" fill="#788fa5"/>
  <path fill="#38434f" d="M118 22h1v32h-1z"/>
  <path d="M119.88 54H119V22h.91a.73.73 0 01.71.51l.52 1.85a50.16 50.16 0 010 27.28l-.52 1.85a.73.73 0 01-.74.51z" fill="#dce6f1" fill-rule="evenodd"/>
  <path fill="#fff" d="M85.25.25h23.5v17.5h-23.5z"/>
  <path d="M108.5.5v17h-23V.5h23m.5-.5H85v18h24V0z" fill="#f5cea9"/>
  <path fill="#6fa9dc" d="M89 4h17v10H89z"/>
  <path fill="#f3ba63" d="M89 12.99l17-2.3V14H89v-1.01z"/>
  <path d="M98 4c-8 0-8 7-8 7h8z" fill="#47423a"/>
  <circle cx="102" cy="8" r="3" fill="#e8edaa"/>
  <circle cx="103.5" cy="8.5" r="1.5" fill="#7b9370"/>
  <path fill="#e8edaa" d="M102 27h8v13h-8z"/>
  <path d="M108 31h-4a.38.38 0 110-.75h4a.38.38 0 110 .75zM108 33h-4a.38.38 0 110-.75h4a.38.38 0 110 .75zM108 35h-4a.38.38 0 110-.75h4a.38.38 0 110 .75zM108 37h-4a.38.38 0 110-.75h4a.38.38 0 110 .75z" fill="#0d2135"/>
  <path fill="#c0d1e2" fill-rule="evenodd" d="M27.12 121.14l4.21-5.53 5.3 2.44-3.15 4.68-6.36-1.59z"/>
  <path d="M29.06 120.08c1.6 1.39 4.9 1.77 4.9 1.77l-.55 3.15-.95 1.76-12.71-6.85-.49-.26a3.7 3.7 0 013.11-.56c1.49.32 4.69 1 6.3 0z" fill="#2a67b2"/>
  <path fill="#c0d1e2" d="M19.248 119.604l13.203 7.118-.474.88-13.204-7.118z"/>
  <path fill="#c0d1e2" fill-rule="evenodd" d="M72 124l-3-6 6.27-.37L77 123l-5 1z"/>
  <path d="M71.85 122.76c2.07.47 5.15-.76 5.15-.76l1 3v2H63a3.72 3.72 0 012.47-2c1.46-.43 4.61-1.33 5.53-3z" fill="#2a67b2"/>
  <path fill="#875b35" fill-rule="evenodd" d="M47.72 85.5l11.81-14.38L76 120h-9L47.72 85.5z"/>
  <path d="M54.17 41.36c.07-.32.57-3.5.18-4.7A6.22 6.22 0 0042.24 39c0 .28.2 1.15.23 1.29.26 1.27-.12 2.09.07 2.66s1 .2 1.28 1.29c.48 1.79 1.13 3 3.79 2.33 1.29-.35 1.56 1.64 1.78 4.17l7-2.72c-1.22-3.02-2.84-3.81-2.22-6.66z" fill="#f0b5a5"/>
  <path d="M29 117l15.71-35.49-.07-4.35 11.67-.73L64.56 79C65.83 80.6 47 103 47 103l-9 18z" fill="#a87445" fill-rule="evenodd"/>
  <path d="M49 50c-1.48 3.48-2 5-3 12-1 6.65-1.35 17.1-1.35 17.1 4.93 1.44 14.51-1.41 18.47 3.33 4.69-6 .17-23.36-1.44-27.08C60.23 52 59 50 58 49z" fill="#57697b"/>
  <path d="M49.18 49.16l6.2-2.07a1.25 1.25 0 011.43.55L58 49l-7.08 2.42c-1.34.49-2 .31-2.39-.26z" fill="#394450"/>
  <path d="M47.28 76.9a20.09 20.09 0 00-3.13 2.79.89.89 0 01-1 .25 1 1 0 00-.82 0c-.23 0-.36-.27-.59-.33-.38 0-.87.36-1.18-.1-.14-.37-.46-.35-.79-.4a.61.61 0 01-.28-.8c.46-1 1.49-1 1.47-2.26.64-.62 2.3-.06 3-.75 0 0 11.43-8 11.86-8.31L55 63h7c.52 4 2.31 5.26-3.17 8.09z" fill="#f0b5a5"/>
  <path d="M53.53 32.3a3.62 3.62 0 00-2.62-1.18H46.4a4.37 4.37 0 00-3 1.13A3.83 3.83 0 0042.14 35v2h-3.6a.52.52 0 00-.52.53.48.48 0 00.51.47h16.04v-2.88a4.09 4.09 0 00-1.04-2.82z" fill="#a87445"/>
  <path d="M59.73 55.38A4.43 4.43 0 0051.07 57l2.15 8H63z" fill="#647889"/>
  <path d="M54.57 38h-9a2.07 2.07 0 001.87 1.69 1.49 1.49 0 012.83 0c0 2.42 2.45 2.93 4.08 1.55l.3-3.2z" fill="#2a1f0e"/>
  <path fill="#95abc1" d="M63 127h15v1H63z"/>
  <path fill="#0d2135" d="M104 26h4v2h-4z"/>
</svg>
