<?xml version="1.0" standalone="no"?>
<!DOCTYPE svg PUBLIC "-//W3C//DTD SVG 20010904//EN"
 "http://www.w3.org/TR/2001/REC-SVG-20010904/DTD/svg10.dtd">
<svg version="1.0" xmlns="http://www.w3.org/2000/svg"
 width="1280.000000pt" height="1280.000000pt" viewBox="0 0 1280.000000 1280.000000"
 preserveAspectRatio="xMidYMid meet">
<metadata>
Created by potrace 1.15, written by Peter Selinger 2001-2017
</metadata>
<g transform="translate(0.000000,1280.000000) scale(0.100000,-0.100000)"
fill="#8bc34a" stroke="none">
<path d="M5705 12663 c-451 -4 -1021 -23 -1207 -39 -101 -8 -184 -17 -186 -19
-2 -2 27 -6 65 -10 125 -12 277 -36 358 -56 122 -30 349 -107 455 -154 279
-123 600 -370 815 -626 119 -142 192 -254 488 -755 156 -264 417 -705 581
-982 164 -277 295 -509 293 -515 -3 -7 -191 -122 -419 -257 -253 -150 -405
-246 -393 -247 20 -3 2926 -240 2998 -245 l39 -3 613 1378 c338 758 607 1376
599 1373 -8 -3 -209 -120 -446 -261 -237 -140 -432 -254 -433 -253 -1 2 -26
46 -55 98 -29 52 -132 225 -230 385 -206 338 -319 529 -418 711 -84 153 -129
207 -218 264 -208 131 -489 181 -1179 210 -208 9 -1349 10 -2120 3z"/>
<path d="M3955 12411 c-334 -87 -459 -156 -564 -311 -21 -30 -102 -165 -181
-300 -78 -135 -301 -506 -495 -825 -702 -1155 -965 -1589 -962 -1591 23 -21
2572 -1423 2577 -1417 21 24 1990 2996 1990 3004 0 5 -35 67 -78 137 -43 70
-105 171 -138 225 -232 386 -616 729 -1009 901 -293 128 -584 199 -870 211
-116 5 -125 4 -270 -34z"/>
<path d="M9875 8129 c-710 -430 -1292 -782 -1293 -784 -2 -2 358 -563 800
-1247 443 -684 896 -1386 1009 -1561 112 -175 218 -334 234 -353 l30 -35 135
15 c253 30 433 84 671 203 302 150 523 315 785 585 128 133 294 340 334 418
32 63 88 268 106 392 18 126 15 266 -10 356 -8 30 -64 142 -124 250 -61 109
-292 537 -515 952 -726 1356 -854 1590 -866 1590 -3 0 -587 -351 -1296 -781z"/>
<path d="M2585 7980 c-121 -4 -305 -11 -410 -14 -104 -4 -406 -13 -670 -21
-1076 -33 -1490 -46 -1492 -49 -2 -1 192 -118 430 -259 237 -141 439 -261 446
-266 12 -8 4 -21 -42 -68 -214 -220 -417 -624 -486 -968 -44 -219 -46 -549 -5
-765 38 -200 135 -429 229 -540 201 -236 596 -464 968 -559 289 -74 446 -85
1063 -76 l485 7 -80 49 c-170 102 -227 156 -263 253 -57 149 -19 324 112 516
68 100 293 361 502 584 l93 98 424 -241 c233 -133 425 -240 426 -239 2 2 -304
580 -679 1285 l-681 1283 -75 -2 c-41 0 -174 -4 -295 -8z"/>
<path d="M12574 5058 c-165 -216 -419 -464 -623 -609 -346 -245 -690 -386
-1047 -428 -81 -10 -1537 -30 -2166 -31 l-228 0 -2 489 -3 490 -770 -1233
c-423 -679 -769 -1237 -768 -1241 1 -11 1555 -2485 1561 -2485 3 0 3 231 1
513 l-4 512 775 7 c863 9 864 9 1005 76 289 140 618 547 957 1187 109 205 396
800 664 1376 55 118 156 306 368 684 123 218 244 453 291 565 29 68 104 270
101 270 -2 0 -52 -64 -112 -142z"/>
<path d="M454 4777 c35 -62 585 -1030 716 -1262 191 -338 309 -555 363 -670
356 -755 630 -1234 868 -1519 143 -171 295 -283 412 -305 28 -5 394 -5 865 -1
450 5 1199 12 1666 16 l848 7 -6 486 c-4 267 -11 981 -17 1586 -6 605 -12
1101 -14 1103 -3 4 -640 -2 -3275 -27 -461 -5 -901 -5 -982 0 -355 21 -665 98
-942 233 -185 90 -303 171 -423 292 -85 84 -99 95 -79 61z"/>
</g>
</svg>
